Coordinates
version=1
nRows=26
nColumns=22
inDegrees=yes

Units are S.I. units (second, meters, Newtons, ...)
If the header above contains a line with 'inDegrees', this indicates whether rotational values are in degrees (yes) or radians (no).

endheader
time	pelvis_tilt	pelvis_list	pelvis_rotation	pelvis_tx	pelvis_ty	pelvis_tz	hip_flexion_r	hip_adduction_r	hip_rotation_r	knee_angle_r	ankle_angle_r	subtalar_angle_r	hip_flexion_l	hip_adduction_l	hip_rotation_l	knee_angle_l	ankle_angle_l	subtalar_angle_l	lumbar_extension	lumbar_bending	lumbar_rotation
      0.95000000	      0.21847245	     -0.60226559	     23.08881619	     -0.30555284	      0.90217376	      0.43818053	     25.87538615	     -0.92775052	      5.16059807	     -7.76710236	      3.26591776	      7.50439791	    -11.82507996	      4.05882823	     11.21916842	    -17.89980720	     22.36339577	    -10.80027711	    -10.23185459	     -4.30507569	    -11.29334819
      0.96000000	      0.16652668	     -0.82186938	     23.54479900	     -0.29570262	      0.90043888	      0.43531141	     26.16912921	     -0.63890510	      5.03422617	     -8.87348995	      2.79334684	      7.22689954	    -12.08530233	      3.69528684	     11.45489828	    -18.43731430	     22.35897561	    -10.85369900	     -9.99048635	     -4.01767471	    -11.38287688
      0.97000000	      0.03275224	     -1.09808187	     23.94075990	     -0.28573796	      0.89873420	      0.43253653	     26.62953819	     -0.28526479	      5.07066805	    -10.22593296	      2.14331811	      6.81395777	    -12.18707534	      3.32374790	     11.64407629	    -19.06519984	     22.29804172	    -10.88239375	     -9.62803386	     -3.72194374	    -11.42205118
      0.98000000	     -0.06250347	     -1.46869308	     24.29573181	     -0.27561459	      0.89729734	      0.42975921	     27.09592211	      0.19318454	      5.15741692	    -11.68563453	      1.32130933	      6.50769860	    -12.24917561	      2.85529483	     11.80309939	    -19.75864690	     22.08811705	    -10.84449290	     -9.25212908	     -3.30454663	    -11.38806041
      0.99000000	     -0.08521712	     -1.91996612	     24.60603274	     -0.26534333	      0.89621140	      0.42697261	     27.52556334	      0.79094227	      5.24067834	    -13.20344390	      0.37950306	      6.28763299	    -12.30132099	      2.29204214	     11.90792406	    -20.53109911	     21.71847727	    -10.79561439	     -8.90751441	     -2.76610696	    -11.29371424
      1.00000000	     -0.14550700	     -2.43681224	     24.84454236	     -0.25494215	      0.89529141	      0.42414711	     28.08109517	      1.44561285	      5.27165762	    -14.86780704	     -0.42426462	      6.07394333	    -12.24568591	      1.71361967	     11.97623658	    -21.37357702	     21.23067002	    -10.61646527	     -8.47274082	     -2.16629635	    -11.12041835
      1.01000000	     -0.06344820	     -2.96529582	     25.05320255	     -0.24444156	      0.89489781	      0.42118225	     28.46462964	      2.14531862	      5.18513810	    -16.49333621	     -1.11767657	      5.97979099	    -12.24966785	      1.08817118	     11.95926931	    -22.33678976	     20.46945960	    -10.50591548	     -8.18405927	     -1.46770609	    -10.90477378
      1.02000000	     -0.03320550	     -3.55130839	     25.21179194	     -0.23381735	      0.89465214	      0.41807471	     28.91161979	      2.84778710	      4.99030861	    -18.12022645	     -1.56837705	      5.98679912	    -12.11560705	      0.46885883	     11.92515112	    -23.40320825	     19.58234401	    -10.12316058	     -7.78485308	     -0.71518313	    -10.62085761
      1.03000000	      0.15470256	     -4.12286279	     25.38073407	     -0.22314308	      0.89497150	      0.41472198	     29.05822582	      3.54370585	      4.69214219	    -19.51832425	     -1.82029473	      6.11638190	    -12.02688759	     -0.18061698	     11.79244666	    -24.64466929	     18.40272011	     -9.90441320	     -7.55846707	      0.12852634	    -10.33112697
      1.04000000	      0.35419733	     -4.66825473	     25.53876140	     -0.21242121	      0.89559568	      0.41123623	     29.09258213	      4.17783855	      4.31455133	    -20.77585024	     -1.83793675	      6.46799009	    -11.85457244	     -0.79210498	     11.58381133	    -26.02954403	     16.95743267	     -9.36331007	     -7.34615909	      0.95842968	    -10.04535575
      1.05000000	      0.62731261	     -5.20637731	     25.74078854	     -0.20173447	      0.89661834	      0.40756589	     28.87793671	      4.77841039	      3.86037166	    -21.73542029	     -1.67395732	      6.86569420	    -11.59114528	     -1.42399523	     11.28078175	    -27.64166133	     15.24686421	     -8.90316097	     -7.21228534	      1.83161202	     -9.77301264
      1.06000000	      0.91330236	     -5.69671715	     25.99478814	     -0.19118335	      0.89795245	      0.40376984	     28.47097329	      5.29494845	      3.38132895	    -22.41876242	     -1.30031567	      7.33379701	    -11.16668661	     -2.02366706	     10.88962685	    -29.49606628	     13.19894888	     -8.32532371	     -7.12285380	      2.66637554	     -9.53372749
      1.07000000	      1.20053558	     -6.15137663	     26.31858096	     -0.18082553	      0.89952378	      0.39989679	     27.90907793	      5.73553892	      2.83083174	    -22.85251897	     -0.79980624	      7.80304645	    -10.53062773	     -2.61901973	     10.39522405	    -31.62449578	     10.86077992	     -7.71666292	     -7.06164481	      3.46034117	     -9.32727456
      1.08000000	      1.46361565	     -6.56310610	     26.72243097	     -0.17073834	      0.90126270	      0.39598989	     27.22476608	      6.09187615	      2.23785204	    -23.04299482	     -0.21193920	      8.25920785	     -9.64324339	     -3.20645042	      9.81978639	    -34.02698197	      8.21556904	     -7.09608160	     -7.01198833	      4.18636321	     -9.17531961
      1.09000000	      1.68435205	     -6.92884458	     27.19679706	     -0.16094633	      0.90308588	      0.39207214	     26.46252595	      6.36379513	      1.60159677	    -23.03522296	      0.44412829	      8.69307012	     -8.49932376	     -3.78139177	      9.18651063	    -36.66301063	      5.30413014	     -6.51322532	     -6.95509031	      4.83018119	     -9.02711294
      1.10000000	      1.89284657	     -7.26153057	     27.75729745	     -0.15150366	      0.90498274	      0.38815109	     25.61279036	      6.58280958	      0.92961152	    -22.83722811	      1.04170901	      9.00276435	     -7.12245367	     -4.37849155	      8.52894394	    -39.50794921	      2.18607646	     -6.22425579	     -6.92323946	      5.42151813	     -8.91932956
      1.11000000	      2.01084619	     -7.57970075	     28.34586246	     -0.14239306	      0.90672027	      0.38434631	     24.82322387	      6.74905143	      0.21407413	    -22.55829691	      1.70796789	      9.35272934	     -5.44581636	     -4.97882099	      7.83145716	    -42.53317941	     -1.01411832	     -5.91570814	     -6.82542422	      5.92040108	     -8.76976944
      1.12000000	      2.12721286	     -7.87651197	     28.98553785	     -0.13362755	      0.90843408	      0.38058366	     23.99080850	      6.90418497	     -0.49848619	    -22.16762570	      2.27414965	      9.55778248	     -3.59736468	     -5.60492662	      7.16613924	    -45.65205394	     -4.24442293	     -5.94680008	     -6.76057366	      6.38119956	     -8.61581889
      1.13000000	      2.22592659	     -8.16525650	     29.64193335	     -0.12517777	      0.91002010	      0.37692971	     23.17731640	      7.06593692	     -1.20431082	    -21.73183802	      2.77685471	      9.65474291	     -1.58245628	     -6.25241132	      6.53543425	    -48.82528294	     -7.35519966	     -6.17384175	     -6.70726484	      6.80118312	     -8.43129683
      1.14000000	      2.31054277	     -8.45316319	     30.30581994	     -0.11700713	      0.91145810	      0.37333765	     22.39099000	      7.24509524	     -1.87690733	    -21.27280103	      3.24873909	      9.63572045	      0.55638225	     -6.89790794	      5.99454202	    -51.98642740	    -10.20297309	     -6.50034772	     -6.65813469	      7.19510555	     -8.16357513
      1.15000000	      2.41287986	     -8.72187885	     30.96471855	     -0.10907895	      0.91278092	      0.36983161	     21.61299222	      7.45072805	     -2.48617118	    -20.82812695	      3.66544658	      9.49336616	      2.74926582	     -7.53320855	      5.52845266	    -55.08882974	    -12.62561746	     -6.75018804	     -6.65842451	      7.56165258	     -7.87438202
      1.16000000	      2.54196253	     -8.96602533	     31.60803966	     -0.10133379	      0.91401928	      0.36635123	     20.82988309	      7.68050560	     -3.03432854	    -20.40359529	      4.05101896	      9.24744439	      4.93840746	     -8.12210253	      5.17022803	    -58.06843439	    -14.46579861	     -6.78122114	     -6.71015018	      7.90535724	     -7.50963415
      1.17000000	      2.70028039	     -9.16932022	     32.23061363	     -0.09375042	      0.91520752	      0.36286198	     20.03688168	      7.92010791	     -3.50151679	    -20.01902941	      4.39739195	      8.91859165	      7.08526782	     -8.62963112	      4.91457798	    -60.88383846	    -15.62518376	     -6.55801365	     -6.82178728	      8.21850554	     -7.08882237
      1.18000000	      2.88273114	     -9.30459836	     32.81110593	     -0.08628829	      0.91637006	      0.35936891	     19.23242605	      8.14617654	     -3.86821052	    -19.70136724	      4.77112496	      8.51679633	      9.14870133	     -9.01623081	      4.73154270	    -63.49617006	    -16.09752409	     -6.13495187	     -7.00648125	      8.47029498	     -6.61689508
      1.19000000	      3.12691878	     -9.37301740	     33.36756771	     -0.07891070	      0.91759832	      0.35577892	     18.35881134	      8.36934914	     -4.16582960	    -19.41439639	      5.07813422	      8.17630014	     11.07399601	     -9.30814564	      4.59500603	    -65.86700680	    -15.91060470	     -5.75700029	     -7.28768161	      8.69707997	     -6.08783552
      1.20000000	      3.36799068	     -9.35050535	     33.87294390	     -0.07163864	      0.91881996	      0.35213657	     17.49403229	      8.53316241	     -4.37012997	    -19.22941063	      5.43570494	      7.78992114	     12.89167329	     -9.44058286	      4.47724666	    -67.97919225	    -15.21396756	     -5.42251491	     -7.62371237	      8.83508268	     -5.52589313
